<svg width="3812" height="1805" xmlns="http://www.w3.org/2000/svg" xmlns:xlink="http://www.w3.org/1999/xlink" overflow="hidden"><defs><clipPath id="clip0"><rect x="304" y="383" width="3812" height="1805"/></clipPath></defs><g clip-path="url(#clip0)" transform="translate(-304 -383)"><rect x="309" y="388" width="232" height="224" stroke="#000000" stroke-width="10.3125" stroke-linejoin="round" stroke-miterlimit="10" fill="#4472C4"/><rect x="541" y="388" width="232" height="224" stroke="#000000" stroke-width="10.3125" stroke-linejoin="round" stroke-miterlimit="10" fill="#4472C4"/><rect x="309" y="612" width="232" height="225" stroke="#000000" stroke-width="10.3125" stroke-linejoin="round" stroke-miterlimit="10" fill="#4472C4"/><rect x="541" y="612" width="232" height="225" stroke="#000000" stroke-width="10.3125" stroke-linejoin="round" stroke-miterlimit="10" fill="none"/><rect x="773" y="388" width="231" height="224" stroke="#000000" stroke-width="10.3125" stroke-linejoin="round" stroke-miterlimit="10" fill="#4472C4"/><rect x="1004" y="388" width="232" height="224" stroke="#000000" stroke-width="10.3125" stroke-linejoin="round" stroke-miterlimit="10" fill="#4472C4"/><rect x="773" y="612" width="231" height="225" stroke="#000000" stroke-width="10.3125" stroke-linejoin="round" stroke-miterlimit="10" fill="#4472C4"/><rect x="1004" y="612" width="232" height="225" stroke="#000000" stroke-width="10.3125" stroke-linejoin="round" stroke-miterlimit="10" fill="none"/><rect x="309" y="837" width="232" height="224" stroke="#000000" stroke-width="10.3125" stroke-linejoin="round" stroke-miterlimit="10" fill="#4472C4"/><rect x="541" y="837" width="232" height="224" stroke="#000000" stroke-width="10.3125" stroke-linejoin="round" stroke-miterlimit="10" fill="none"/><rect x="309" y="1061" width="232" height="224" stroke="#000000" stroke-width="10.3125" stroke-linejoin="round" stroke-miterlimit="10" fill="#4472C4"/><rect x="541" y="1061" width="232" height="224" stroke="#000000" stroke-width="10.3125" stroke-linejoin="round" stroke-miterlimit="10" fill="none"/><rect x="773" y="837" width="231" height="224" stroke="#000000" stroke-width="10.3125" stroke-linejoin="round" stroke-miterlimit="10" fill="#4472C4"/><rect x="1004" y="837" width="232" height="224" stroke="#000000" stroke-width="10.3125" stroke-linejoin="round" stroke-miterlimit="10" fill="none"/><rect x="773" y="1061" width="231" height="224" stroke="#000000" stroke-width="10.3125" stroke-linejoin="round" stroke-miterlimit="10" fill="none"/><rect x="1004" y="1061" width="232" height="224" stroke="#000000" stroke-width="10.3125" stroke-linejoin="round" stroke-miterlimit="10" fill="none"/><rect x="1236" y="388" width="232" height="224" stroke="#000000" stroke-width="10.3125" stroke-linejoin="round" stroke-miterlimit="10" fill="#4472C4"/><rect x="1468" y="388" width="232" height="224" stroke="#000000" stroke-width="10.3125" stroke-linejoin="round" stroke-miterlimit="10" fill="#4472C4"/><rect x="1236" y="612" width="232" height="225" stroke="#000000" stroke-width="10.3125" stroke-linejoin="round" stroke-miterlimit="10" fill="none"/><rect x="1468" y="612" width="232" height="225" stroke="#000000" stroke-width="10.3125" stroke-linejoin="round" stroke-miterlimit="10" fill="none"/><rect x="1700" y="388" width="231" height="224" stroke="#000000" stroke-width="10.3125" stroke-linejoin="round" stroke-miterlimit="10" fill="#4472C4"/><rect x="1931" y="388" width="232" height="224" stroke="#000000" stroke-width="10.3125" stroke-linejoin="round" stroke-miterlimit="10" fill="#4472C4"/><rect x="1700" y="612" width="231" height="225" stroke="#000000" stroke-width="10.3125" stroke-linejoin="round" stroke-miterlimit="10" fill="none"/><rect x="1931" y="612" width="232" height="225" stroke="#000000" stroke-width="10.3125" stroke-linejoin="round" stroke-miterlimit="10" fill="#4472C4"/><rect x="1236" y="837" width="232" height="224" stroke="#000000" stroke-width="10.3125" stroke-linejoin="round" stroke-miterlimit="10" fill="none"/><rect x="1468" y="837" width="232" height="224" stroke="#000000" stroke-width="10.3125" stroke-linejoin="round" stroke-miterlimit="10" fill="none"/><rect x="1236" y="1061" width="232" height="224" stroke="#000000" stroke-width="10.3125" stroke-linejoin="round" stroke-miterlimit="10" fill="none"/><rect x="1468" y="1061" width="232" height="224" stroke="#000000" stroke-width="10.3125" stroke-linejoin="round" stroke-miterlimit="10" fill="none"/><rect x="1700" y="837" width="231" height="224" stroke="#000000" stroke-width="10.3125" stroke-linejoin="round" stroke-miterlimit="10" fill="none"/><rect x="1931" y="837" width="232" height="224" stroke="#000000" stroke-width="10.3125" stroke-linejoin="round" stroke-miterlimit="10" fill="#4472C4"/><rect x="1700" y="1061" width="231" height="224" stroke="#000000" stroke-width="10.3125" stroke-linejoin="round" stroke-miterlimit="10" fill="none"/><rect x="1931" y="1061" width="232" height="224" stroke="#000000" stroke-width="10.3125" stroke-linejoin="round" stroke-miterlimit="10" fill="#4472C4"/><rect x="309" y="1285" width="232" height="224" stroke="#000000" stroke-width="10.3125" stroke-linejoin="round" stroke-miterlimit="10" fill="#4472C4"/><rect x="541" y="1285" width="232" height="224" stroke="#000000" stroke-width="10.3125" stroke-linejoin="round" stroke-miterlimit="10" fill="none"/><rect x="309" y="1510" width="232" height="224" stroke="#000000" stroke-width="10.3125" stroke-linejoin="round" stroke-miterlimit="10" fill="#4472C4"/><rect x="541" y="1510" width="232" height="224" stroke="#000000" stroke-width="10.3125" stroke-linejoin="round" stroke-miterlimit="10" fill="none"/><rect x="773" y="1285" width="231" height="224" stroke="#000000" stroke-width="10.3125" stroke-linejoin="round" stroke-miterlimit="10" fill="none"/><rect x="1004" y="1285" width="232" height="224" stroke="#000000" stroke-width="10.3125" stroke-linejoin="round" stroke-miterlimit="10" fill="none"/><rect x="773" y="1510" width="231" height="224" stroke="#000000" stroke-width="10.3125" stroke-linejoin="round" stroke-miterlimit="10" fill="none"/><rect x="1004" y="1510" width="232" height="224" stroke="#000000" stroke-width="10.3125" stroke-linejoin="round" stroke-miterlimit="10" fill="none"/><rect x="309" y="1734" width="232" height="224" stroke="#000000" stroke-width="10.3125" stroke-linejoin="round" stroke-miterlimit="10" fill="#4472C4"/><rect x="541" y="1734" width="232" height="224" stroke="#000000" stroke-width="10.3125" stroke-linejoin="round" stroke-miterlimit="10" fill="none"/><rect x="309" y="1958" width="232" height="225" stroke="#000000" stroke-width="10.3125" stroke-linejoin="round" stroke-miterlimit="10" fill="#4472C4"/><rect x="541" y="1958" width="232" height="225" stroke="#000000" stroke-width="10.3125" stroke-linejoin="round" stroke-miterlimit="10" fill="#4472C4"/><rect x="773" y="1734" width="231" height="224" stroke="#000000" stroke-width="10.3125" stroke-linejoin="round" stroke-miterlimit="10" fill="none"/><rect x="1004" y="1734" width="232" height="224" stroke="#000000" stroke-width="10.3125" stroke-linejoin="round" stroke-miterlimit="10" fill="none"/><rect x="773" y="1958" width="231" height="225" stroke="#000000" stroke-width="10.3125" stroke-linejoin="round" stroke-miterlimit="10" fill="#4472C4"/><rect x="1004" y="1958" width="232" height="225" stroke="#000000" stroke-width="10.3125" stroke-linejoin="round" stroke-miterlimit="10" fill="#4472C4"/><rect x="1236" y="1285" width="232" height="224" stroke="#000000" stroke-width="10.3125" stroke-linejoin="round" stroke-miterlimit="10" fill="none"/><rect x="1468" y="1285" width="232" height="224" stroke="#000000" stroke-width="10.3125" stroke-linejoin="round" stroke-miterlimit="10" fill="none"/><rect x="1236" y="1510" width="232" height="224" stroke="#000000" stroke-width="10.3125" stroke-linejoin="round" stroke-miterlimit="10" fill="none"/><rect x="1468" y="1510" width="232" height="224" stroke="#000000" stroke-width="10.3125" stroke-linejoin="round" stroke-miterlimit="10" fill="#4472C4"/><rect x="1700" y="1285" width="231" height="224" stroke="#000000" stroke-width="10.3125" stroke-linejoin="round" stroke-miterlimit="10" fill="none"/><rect x="1931" y="1285" width="232" height="224" stroke="#000000" stroke-width="10.3125" stroke-linejoin="round" stroke-miterlimit="10" fill="#4472C4"/><rect x="1700" y="1510" width="231" height="224" stroke="#000000" stroke-width="10.3125" stroke-linejoin="round" stroke-miterlimit="10" fill="none"/><rect x="1931" y="1510" width="232" height="224" stroke="#000000" stroke-width="10.3125" stroke-linejoin="round" stroke-miterlimit="10" fill="#4472C4"/><rect x="1236" y="1734" width="232" height="224" stroke="#000000" stroke-width="10.3125" stroke-linejoin="round" stroke-miterlimit="10" fill="none"/><rect x="1468" y="1734" width="232" height="224" stroke="#000000" stroke-width="10.3125" stroke-linejoin="round" stroke-miterlimit="10" fill="none"/><rect x="1236" y="1958" width="232" height="225" stroke="#000000" stroke-width="10.3125" stroke-linejoin="round" stroke-miterlimit="10" fill="#4472C4"/><rect x="1468" y="1958" width="232" height="225" stroke="#000000" stroke-width="10.3125" stroke-linejoin="round" stroke-miterlimit="10" fill="#4472C4"/><rect x="1700" y="1734" width="231" height="224" stroke="#000000" stroke-width="10.3125" stroke-linejoin="round" stroke-miterlimit="10" fill="none"/><rect x="1931" y="1734" width="232" height="224" stroke="#000000" stroke-width="10.3125" stroke-linejoin="round" stroke-miterlimit="10" fill="#4472C4"/><rect x="1700" y="1958" width="231" height="225" stroke="#000000" stroke-width="10.3125" stroke-linejoin="round" stroke-miterlimit="10" fill="#4472C4"/><rect x="1931" y="1958" width="232" height="225" stroke="#000000" stroke-width="10.3125" stroke-linejoin="round" stroke-miterlimit="10" fill="#4472C4"/><path d="M846.663 1624.2 891.931 1588.21 930.044 1636.14 884.776 1672.13Z" stroke="#FFC000" stroke-width="6.875" stroke-miterlimit="8" fill="#FFC000" fill-rule="evenodd"/><path d="M902.243 1619.13 1010 1533.44" stroke="#FFC000" stroke-width="10.3125" stroke-miterlimit="8" fill="none" fill-rule="evenodd"/><path d="M0 0 1289.01 137.484" stroke="#FF0000" stroke-width="6.875" stroke-miterlimit="8" fill="none" fill-rule="evenodd" transform="matrix(1 0 0 -1 911.5 1612.98)"/><path d="M0 0 402.138 1186.16" stroke="#FF0000" stroke-width="6.875" stroke-miterlimit="8" fill="none" fill-rule="evenodd" transform="matrix(1 0 0 -1 911.5 1609.66)"/><path d="M1004 1345 1190.14 1577.6" stroke="#70AD47" stroke-width="13.75" stroke-miterlimit="8" fill="none" fill-rule="evenodd"/><rect x="2395.5" y="388.5" width="1718" height="673" stroke="#0070C0" stroke-width="4.58333" stroke-miterlimit="8" fill="#0070C0"/><rect x="2395.5" y="1061.5" width="1718" height="673" stroke="#002060" stroke-width="4.58333" stroke-miterlimit="8" fill="#002060"/></g></svg>