<svg width="3812" height="1805" xmlns="http://www.w3.org/2000/svg" xmlns:xlink="http://www.w3.org/1999/xlink" overflow="hidden"><defs><clipPath id="clip0"><rect x="304" y="383" width="3812" height="1805"/></clipPath></defs><g clip-path="url(#clip0)" transform="translate(-304 -383)"><rect x="309" y="388" width="232" height="224" stroke="#000000" stroke-width="10.3125" stroke-linejoin="round" stroke-miterlimit="10" fill="#4472C4"/><rect x="541" y="388" width="232" height="224" stroke="#000000" stroke-width="10.3125" stroke-linejoin="round" stroke-miterlimit="10" fill="#4472C4"/><rect x="309" y="612" width="232" height="225" stroke="#000000" stroke-width="10.3125" stroke-linejoin="round" stroke-miterlimit="10" fill="#4472C4"/><rect x="541" y="612" width="232" height="225" stroke="#000000" stroke-width="10.3125" stroke-linejoin="round" stroke-miterlimit="10" fill="none"/><rect x="773" y="388" width="231" height="224" stroke="#000000" stroke-width="10.3125" stroke-linejoin="round" stroke-miterlimit="10" fill="#4472C4"/><rect x="1004" y="388" width="232" height="224" stroke="#000000" stroke-width="10.3125" stroke-linejoin="round" stroke-miterlimit="10" fill="#4472C4"/><rect x="773" y="612" width="231" height="225" stroke="#000000" stroke-width="10.3125" stroke-linejoin="round" stroke-miterlimit="10" fill="#4472C4"/><rect x="1004" y="612" width="232" height="225" stroke="#000000" stroke-width="10.3125" stroke-linejoin="round" stroke-miterlimit="10" fill="none"/><rect x="309" y="837" width="232" height="224" stroke="#000000" stroke-width="10.3125" stroke-linejoin="round" stroke-miterlimit="10" fill="#4472C4"/><rect x="541" y="837" width="232" height="224" stroke="#000000" stroke-width="10.3125" stroke-linejoin="round" stroke-miterlimit="10" fill="none"/><rect x="309" y="1061" width="232" height="224" stroke="#000000" stroke-width="10.3125" stroke-linejoin="round" stroke-miterlimit="10" fill="#4472C4"/><rect x="541" y="1061" width="232" height="224" stroke="#000000" stroke-width="10.3125" stroke-linejoin="round" stroke-miterlimit="10" fill="none"/><rect x="773" y="837" width="231" height="224" stroke="#000000" stroke-width="10.3125" stroke-linejoin="round" stroke-miterlimit="10" fill="#4472C4"/><rect x="1004" y="837" width="232" height="224" stroke="#000000" stroke-width="10.3125" stroke-linejoin="round" stroke-miterlimit="10" fill="none"/><rect x="773" y="1061" width="231" height="224" stroke="#000000" stroke-width="10.3125" stroke-linejoin="round" stroke-miterlimit="10" fill="none"/><rect x="1004" y="1061" width="232" height="224" stroke="#000000" stroke-width="10.3125" stroke-linejoin="round" stroke-miterlimit="10" fill="none"/><rect x="1236" y="388" width="232" height="224" stroke="#000000" stroke-width="10.3125" stroke-linejoin="round" stroke-miterlimit="10" fill="#4472C4"/><rect x="1468" y="388" width="232" height="224" stroke="#000000" stroke-width="10.3125" stroke-linejoin="round" stroke-miterlimit="10" fill="#4472C4"/><rect x="1236" y="612" width="232" height="225" stroke="#000000" stroke-width="10.3125" stroke-linejoin="round" stroke-miterlimit="10" fill="none"/><rect x="1468" y="612" width="232" height="225" stroke="#000000" stroke-width="10.3125" stroke-linejoin="round" stroke-miterlimit="10" fill="none"/><rect x="1700" y="388" width="231" height="224" stroke="#000000" stroke-width="10.3125" stroke-linejoin="round" stroke-miterlimit="10" fill="#4472C4"/><rect x="1931" y="388" width="232" height="224" stroke="#000000" stroke-width="10.3125" stroke-linejoin="round" stroke-miterlimit="10" fill="#4472C4"/><rect x="1700" y="612" width="231" height="225" stroke="#000000" stroke-width="10.3125" stroke-linejoin="round" stroke-miterlimit="10" fill="none"/><rect x="1931" y="612" width="232" height="225" stroke="#000000" stroke-width="10.3125" stroke-linejoin="round" stroke-miterlimit="10" fill="#4472C4"/><rect x="1236" y="837" width="232" height="224" stroke="#000000" stroke-width="10.3125" stroke-linejoin="round" stroke-miterlimit="10" fill="none"/><rect x="1468" y="837" width="232" height="224" stroke="#000000" stroke-width="10.3125" stroke-linejoin="round" stroke-miterlimit="10" fill="none"/><rect x="1236" y="1061" width="232" height="224" stroke="#000000" stroke-width="10.3125" stroke-linejoin="round" stroke-miterlimit="10" fill="none"/><rect x="1468" y="1061" width="232" height="224" stroke="#000000" stroke-width="10.3125" stroke-linejoin="round" stroke-miterlimit="10" fill="none"/><rect x="1700" y="837" width="231" height="224" stroke="#000000" stroke-width="10.3125" stroke-linejoin="round" stroke-miterlimit="10" fill="none"/><rect x="1931" y="837" width="232" height="224" stroke="#000000" stroke-width="10.3125" stroke-linejoin="round" stroke-miterlimit="10" fill="#4472C4"/><rect x="1700" y="1061" width="231" height="224" stroke="#000000" stroke-width="10.3125" stroke-linejoin="round" stroke-miterlimit="10" fill="none"/><rect x="1931" y="1061" width="232" height="224" stroke="#000000" stroke-width="10.3125" stroke-linejoin="round" stroke-miterlimit="10" fill="#4472C4"/><rect x="309" y="1285" width="232" height="224" stroke="#000000" stroke-width="10.3125" stroke-linejoin="round" stroke-miterlimit="10" fill="#4472C4"/><rect x="541" y="1285" width="232" height="224" stroke="#000000" stroke-width="10.3125" stroke-linejoin="round" stroke-miterlimit="10" fill="none"/><rect x="309" y="1510" width="232" height="224" stroke="#000000" stroke-width="10.3125" stroke-linejoin="round" stroke-miterlimit="10" fill="#4472C4"/><rect x="541" y="1510" width="232" height="224" stroke="#000000" stroke-width="10.3125" stroke-linejoin="round" stroke-miterlimit="10" fill="none"/><rect x="773" y="1285" width="231" height="224" stroke="#000000" stroke-width="10.3125" stroke-linejoin="round" stroke-miterlimit="10" fill="none"/><rect x="1004" y="1285" width="232" height="224" stroke="#000000" stroke-width="10.3125" stroke-linejoin="round" stroke-miterlimit="10" fill="none"/><rect x="773" y="1510" width="231" height="224" stroke="#000000" stroke-width="10.3125" stroke-linejoin="round" stroke-miterlimit="10" fill="none"/><rect x="1004" y="1510" width="232" height="224" stroke="#000000" stroke-width="10.3125" stroke-linejoin="round" stroke-miterlimit="10" fill="none"/><rect x="309" y="1734" width="232" height="224" stroke="#000000" stroke-width="10.3125" stroke-linejoin="round" stroke-miterlimit="10" fill="#4472C4"/><rect x="541" y="1734" width="232" height="224" stroke="#000000" stroke-width="10.3125" stroke-linejoin="round" stroke-miterlimit="10" fill="none"/><rect x="309" y="1958" width="232" height="225" stroke="#000000" stroke-width="10.3125" stroke-linejoin="round" stroke-miterlimit="10" fill="#4472C4"/><rect x="541" y="1958" width="232" height="225" stroke="#000000" stroke-width="10.3125" stroke-linejoin="round" stroke-miterlimit="10" fill="#4472C4"/><rect x="773" y="1734" width="231" height="224" stroke="#000000" stroke-width="10.3125" stroke-linejoin="round" stroke-miterlimit="10" fill="none"/><rect x="1004" y="1734" width="232" height="224" stroke="#000000" stroke-width="10.3125" stroke-linejoin="round" stroke-miterlimit="10" fill="none"/><rect x="773" y="1958" width="231" height="225" stroke="#000000" stroke-width="10.3125" stroke-linejoin="round" stroke-miterlimit="10" fill="#4472C4"/><rect x="1004" y="1958" width="232" height="225" stroke="#000000" stroke-width="10.3125" stroke-linejoin="round" stroke-miterlimit="10" fill="#4472C4"/><rect x="1236" y="1285" width="232" height="224" stroke="#000000" stroke-width="10.3125" stroke-linejoin="round" stroke-miterlimit="10" fill="none"/><rect x="1468" y="1285" width="232" height="224" stroke="#000000" stroke-width="10.3125" stroke-linejoin="round" stroke-miterlimit="10" fill="none"/><rect x="1236" y="1510" width="232" height="224" stroke="#000000" stroke-width="10.3125" stroke-linejoin="round" stroke-miterlimit="10" fill="none"/><rect x="1468" y="1510" width="232" height="224" stroke="#000000" stroke-width="10.3125" stroke-linejoin="round" stroke-miterlimit="10" fill="#4472C4"/><rect x="1700" y="1285" width="231" height="224" stroke="#000000" stroke-width="10.3125" stroke-linejoin="round" stroke-miterlimit="10" fill="none"/><rect x="1931" y="1285" width="232" height="224" stroke="#000000" stroke-width="10.3125" stroke-linejoin="round" stroke-miterlimit="10" fill="#4472C4"/><rect x="1700" y="1510" width="231" height="224" stroke="#000000" stroke-width="10.3125" stroke-linejoin="round" stroke-miterlimit="10" fill="none"/><rect x="1931" y="1510" width="232" height="224" stroke="#000000" stroke-width="10.3125" stroke-linejoin="round" stroke-miterlimit="10" fill="#4472C4"/><rect x="1236" y="1734" width="232" height="224" stroke="#000000" stroke-width="10.3125" stroke-linejoin="round" stroke-miterlimit="10" fill="none"/><rect x="1468" y="1734" width="232" height="224" stroke="#000000" stroke-width="10.3125" stroke-linejoin="round" stroke-miterlimit="10" fill="none"/><rect x="1236" y="1958" width="232" height="225" stroke="#000000" stroke-width="10.3125" stroke-linejoin="round" stroke-miterlimit="10" fill="#4472C4"/><rect x="1468" y="1958" width="232" height="225" stroke="#000000" stroke-width="10.3125" stroke-linejoin="round" stroke-miterlimit="10" fill="#4472C4"/><rect x="1700" y="1734" width="231" height="224" stroke="#000000" stroke-width="10.3125" stroke-linejoin="round" stroke-miterlimit="10" fill="none"/><rect x="1931" y="1734" width="232" height="224" stroke="#000000" stroke-width="10.3125" stroke-linejoin="round" stroke-miterlimit="10" fill="#4472C4"/><rect x="1700" y="1958" width="231" height="225" stroke="#000000" stroke-width="10.3125" stroke-linejoin="round" stroke-miterlimit="10" fill="#4472C4"/><rect x="1931" y="1958" width="232" height="225" stroke="#000000" stroke-width="10.3125" stroke-linejoin="round" stroke-miterlimit="10" fill="#4472C4"/><path d="M846.663 1624.2 891.931 1588.21 930.044 1636.14 884.776 1672.13Z" stroke="#FFC000" stroke-width="6.875" stroke-miterlimit="8" fill="#FFC000" fill-rule="evenodd"/><path d="M902.243 1619.13 1010 1533.44" stroke="#FFC000" stroke-width="10.3125" stroke-miterlimit="8" fill="none" fill-rule="evenodd"/><path d="M0 0 1289.01 137.484" stroke="#FF0000" stroke-width="6.875" stroke-miterlimit="8" fill="none" fill-rule="evenodd" transform="matrix(1 0 0 -1 911.5 1612.98)"/><path d="M0 0 402.138 1186.16" stroke="#FF0000" stroke-width="6.875" stroke-miterlimit="8" fill="none" fill-rule="evenodd" transform="matrix(1 0 0 -1 911.5 1609.66)"/><path d="M1004 1345 1190.14 1577.6" stroke="#70AD47" stroke-width="13.75" stroke-miterlimit="8" fill="none" fill-rule="evenodd"/><rect x="2395.5" y="388.5" width="1718" height="673" stroke="#0070C0" stroke-width="4.58333" stroke-miterlimit="8" fill="#0070C0"/><rect x="2395.5" y="1061.5" width="1718" height="673" stroke="#002060" stroke-width="4.58333" stroke-miterlimit="8" fill="#002060"/><path d="M0 0 402.138 999.801" stroke="#ED7D31" stroke-width="2.29167" stroke-miterlimit="8" fill="none" fill-rule="evenodd" transform="matrix(1 0 0 -1 911 1611.8)"/><path d="M0 0 505.263 999.801" stroke="#ED7D31" stroke-width="2.29167" stroke-miterlimit="8" fill="none" fill-rule="evenodd" transform="matrix(1 0 0 -1 911 1611.8)"/><path d="M0 0 611.825 999.801" stroke="#ED7D31" stroke-width="2.29167" stroke-miterlimit="8" fill="none" fill-rule="evenodd" transform="matrix(1 0 0 -1 911 1611.8)"/><path d="M0 0 739.013 999.801" stroke="#ED7D31" stroke-width="2.29167" stroke-miterlimit="8" fill="none" fill-rule="evenodd" transform="matrix(1 0 0 -1 911 1611.8)"/><rect x="2394.5" y="713.5" width="47.9998" height="699" stroke="#ED7D31" stroke-width="4.58333" stroke-miterlimit="8" fill="#ED7D31"/><rect x="2445.5" y="732.5" width="48.0002" height="666" stroke="#ED7D31" stroke-width="4.58333" stroke-miterlimit="8" fill="#ED7D31"/><rect x="2497.5" y="749.5" width="48.0002" height="632" stroke="#ED7D31" stroke-width="4.58333" stroke-miterlimit="8" fill="#ED7D31"/><rect x="2550.5" y="768.5" width="47.9998" height="594" stroke="#ED7D31" stroke-width="4.58333" stroke-miterlimit="8" fill="#ED7D31"/><rect x="3123.5" y="950.5" width="47.9998" height="218" stroke="#ED7D31" stroke-width="4.58333" stroke-miterlimit="8" fill="#ED7D31"/><rect x="2602.5" y="785.5" width="48.9998" height="560" stroke="#ED7D31" stroke-width="4.58333" stroke-miterlimit="8" fill="#ED7D31"/><rect x="2654.5" y="803.5" width="48.0002" height="523" stroke="#ED7D31" stroke-width="4.58333" stroke-miterlimit="8" fill="#ED7D31"/><rect x="2707.5" y="822.5" width="48.0002" height="484" stroke="#ED7D31" stroke-width="4.58333" stroke-miterlimit="8" fill="#ED7D31"/><rect x="2759.5" y="837.5" width="48.9998" height="448" stroke="#ED7D31" stroke-width="4.58333" stroke-miterlimit="8" fill="#ED7D31"/><rect x="2812.5" y="856.5" width="47.9998" height="416" stroke="#ED7D31" stroke-width="4.58333" stroke-miterlimit="8" fill="#ED7D31"/><rect x="3856.5" y="711.5" width="48.0002" height="699" stroke="#ED7D31" stroke-width="4.58333" stroke-miterlimit="8" fill="#ED7D31"/><rect x="2864.5" y="872.5" width="48.0002" height="383" stroke="#ED7D31" stroke-width="4.58333" stroke-miterlimit="8" fill="#ED7D31"/><rect x="2917.5" y="887.5" width="48.0002" height="351" stroke="#ED7D31" stroke-width="4.58333" stroke-miterlimit="8" fill="#ED7D31"/><rect x="2969.5" y="907.5" width="47.9998" height="310" stroke="#ED7D31" stroke-width="4.58333" stroke-miterlimit="8" fill="#ED7D31"/><rect x="3020.5" y="922.5" width="48.0002" height="275" stroke="#ED7D31" stroke-width="4.58333" stroke-miterlimit="8" fill="#ED7D31"/><rect x="3071.5" y="941.5" width="48.0002" height="242" stroke="#ED7D31" stroke-width="4.58333" stroke-miterlimit="8" fill="#ED7D31"/><rect x="3175.5" y="932.5" width="47.9998" height="257" stroke="#ED7D31" stroke-width="4.58333" stroke-miterlimit="8" fill="#ED7D31"/><rect x="3228.5" y="914.5" width="48.0002" height="290" stroke="#ED7D31" stroke-width="4.58333" stroke-miterlimit="8" fill="#ED7D31"/><rect x="3280.5" y="900.5" width="48.0002" height="323" stroke="#ED7D31" stroke-width="4.58333" stroke-miterlimit="8" fill="#ED7D31"/><rect x="3333.5" y="882.5" width="48.0002" height="354" stroke="#ED7D31" stroke-width="4.58333" stroke-miterlimit="8" fill="#ED7D31"/><rect x="3385.5" y="864.5" width="47.9998" height="391" stroke="#ED7D31" stroke-width="4.58333" stroke-miterlimit="8" fill="#ED7D31"/><rect x="3438.5" y="848.5" width="48.0002" height="424" stroke="#ED7D31" stroke-width="4.58333" stroke-miterlimit="8" fill="#ED7D31"/><rect x="3489.5" y="829.5" width="48.0002" height="463" stroke="#ED7D31" stroke-width="4.58333" stroke-miterlimit="8" fill="#ED7D31"/><rect x="3541.5" y="812.5" width="48.9998" height="494" stroke="#ED7D31" stroke-width="4.58333" stroke-miterlimit="8" fill="#ED7D31"/><rect x="3594.5" y="796.5" width="47.9998" height="530" stroke="#ED7D31" stroke-width="4.58333" stroke-miterlimit="8" fill="#ED7D31"/><rect x="3646.5" y="779.5" width="48.0002" height="566" stroke="#ED7D31" stroke-width="4.58333" stroke-miterlimit="8" fill="#ED7D31"/><rect x="3699.5" y="759.5" width="48.0002" height="601" stroke="#ED7D31" stroke-width="4.58333" stroke-miterlimit="8" fill="#ED7D31"/><rect x="3752.5" y="743.5" width="48.0002" height="638" stroke="#ED7D31" stroke-width="4.58333" stroke-miterlimit="8" fill="#ED7D31"/><rect x="3804.5" y="724.5" width="47.9998" height="674" stroke="#ED7D31" stroke-width="4.58333" stroke-miterlimit="8" fill="#ED7D31"/><rect x="3907.5" y="694.5" width="48.0002" height="736" stroke="#ED7D31" stroke-width="4.58333" stroke-miterlimit="8" fill="#ED7D31"/><rect x="3960.5" y="673.5" width="48.0002" height="774" stroke="#ED7D31" stroke-width="4.58333" stroke-miterlimit="8" fill="#ED7D31"/><rect x="4012.5" y="434.5" width="47.9998" height="1209" stroke="#ED7D31" stroke-width="4.58333" stroke-miterlimit="8" fill="#ED7D31"/><rect x="4065.5" y="411.5" width="48" height="1287" stroke="#ED7D31" stroke-width="4.58333" stroke-miterlimit="8" fill="#ED7D31"/><path d="M0 0 853.596 999.801" stroke="#ED7D31" stroke-width="2.29167" stroke-miterlimit="8" fill="none" fill-rule="evenodd" transform="matrix(1 0 0 -1 911 1611.8)"/><path d="M0 0 977.346 999.801" stroke="#ED7D31" stroke-width="2.29167" stroke-miterlimit="8" fill="none" fill-rule="evenodd" transform="matrix(1 0 0 -1 911 1611.8)"/><path d="M0 0 1020.31 939.281" stroke="#ED7D31" stroke-width="2.29167" stroke-miterlimit="8" fill="none" fill-rule="evenodd" transform="matrix(1 0 0 -1 911 1612.28)"/><path d="M0 0 1020.31 816.391" stroke="#ED7D31" stroke-width="2.29167" stroke-miterlimit="8" fill="none" fill-rule="evenodd" transform="matrix(1 0 0 -1 911 1612.39)"/><path d="M0 0 1020.31 712.504" stroke="#ED7D31" stroke-width="2.29167" stroke-miterlimit="8" fill="none" fill-rule="evenodd" transform="matrix(1 0 0 -1 911 1612.5)"/><path d="M0 0 1020.31 590.089" stroke="#ED7D31" stroke-width="2.29167" stroke-miterlimit="8" fill="none" fill-rule="evenodd" transform="matrix(1 0 0 -1 911 1612.09)"/><path d="M0 0 1020.31 439.11" stroke="#ED7D31" stroke-width="2.29167" stroke-miterlimit="8" fill="none" fill-rule="evenodd" transform="matrix(1 0 0 -1 911 1612.11)"/><path d="M0 0 1020.31 320.531" stroke="#ED7D31" stroke-width="2.29167" stroke-miterlimit="8" fill="none" fill-rule="evenodd" transform="matrix(1 0 0 -1 911 1612.53)"/><path d="M0 0 1020.31 251.971" stroke="#ED7D31" stroke-width="2.29167" stroke-miterlimit="8" fill="none" fill-rule="evenodd" transform="matrix(1 0 0 -1 911 1611.97)"/><path d="M0 0 556.856 78.7298" stroke="#ED7D31" stroke-width="2.29167" stroke-miterlimit="8" fill="none" fill-rule="evenodd" transform="matrix(1 0 0 -1 911 1611.73)"/></g></svg>