<svg width="1864" height="1805" xmlns="http://www.w3.org/2000/svg" xmlns:xlink="http://www.w3.org/1999/xlink" overflow="hidden"><defs><clipPath id="clip0"><rect x="304" y="383" width="1864" height="1805"/></clipPath></defs><g clip-path="url(#clip0)" transform="translate(-304 -383)"><rect x="309" y="388" width="232" height="224" stroke="#000000" stroke-width="10.3125" stroke-linejoin="round" stroke-miterlimit="10" fill="#4472C4"/><rect x="541" y="388" width="232" height="224" stroke="#000000" stroke-width="10.3125" stroke-linejoin="round" stroke-miterlimit="10" fill="#4472C4"/><rect x="309" y="612" width="232" height="225" stroke="#000000" stroke-width="10.3125" stroke-linejoin="round" stroke-miterlimit="10" fill="#4472C4"/><rect x="541" y="612" width="232" height="225" stroke="#000000" stroke-width="10.3125" stroke-linejoin="round" stroke-miterlimit="10" fill="none"/><rect x="773" y="388" width="231" height="224" stroke="#000000" stroke-width="10.3125" stroke-linejoin="round" stroke-miterlimit="10" fill="#4472C4"/><rect x="1004" y="388" width="232" height="224" stroke="#000000" stroke-width="10.3125" stroke-linejoin="round" stroke-miterlimit="10" fill="#4472C4"/><rect x="773" y="612" width="231" height="225" stroke="#000000" stroke-width="10.3125" stroke-linejoin="round" stroke-miterlimit="10" fill="#4472C4"/><rect x="1004" y="612" width="232" height="225" stroke="#000000" stroke-width="10.3125" stroke-linejoin="round" stroke-miterlimit="10" fill="none"/><rect x="309" y="837" width="232" height="224" stroke="#000000" stroke-width="10.3125" stroke-linejoin="round" stroke-miterlimit="10" fill="#4472C4"/><rect x="541" y="837" width="232" height="224" stroke="#000000" stroke-width="10.3125" stroke-linejoin="round" stroke-miterlimit="10" fill="none"/><rect x="309" y="1061" width="232" height="224" stroke="#000000" stroke-width="10.3125" stroke-linejoin="round" stroke-miterlimit="10" fill="#4472C4"/><rect x="541" y="1061" width="232" height="224" stroke="#000000" stroke-width="10.3125" stroke-linejoin="round" stroke-miterlimit="10" fill="none"/><rect x="773" y="837" width="231" height="224" stroke="#000000" stroke-width="10.3125" stroke-linejoin="round" stroke-miterlimit="10" fill="#4472C4"/><rect x="1004" y="837" width="232" height="224" stroke="#000000" stroke-width="10.3125" stroke-linejoin="round" stroke-miterlimit="10" fill="none"/><rect x="773" y="1061" width="231" height="224" stroke="#000000" stroke-width="10.3125" stroke-linejoin="round" stroke-miterlimit="10" fill="none"/><rect x="1004" y="1061" width="232" height="224" stroke="#000000" stroke-width="10.3125" stroke-linejoin="round" stroke-miterlimit="10" fill="none"/><rect x="1236" y="388" width="232" height="224" stroke="#000000" stroke-width="10.3125" stroke-linejoin="round" stroke-miterlimit="10" fill="#4472C4"/><rect x="1468" y="388" width="232" height="224" stroke="#000000" stroke-width="10.3125" stroke-linejoin="round" stroke-miterlimit="10" fill="#4472C4"/><rect x="1236" y="612" width="232" height="225" stroke="#000000" stroke-width="10.3125" stroke-linejoin="round" stroke-miterlimit="10" fill="none"/><rect x="1468" y="612" width="232" height="225" stroke="#000000" stroke-width="10.3125" stroke-linejoin="round" stroke-miterlimit="10" fill="none"/><rect x="1700" y="388" width="231" height="224" stroke="#000000" stroke-width="10.3125" stroke-linejoin="round" stroke-miterlimit="10" fill="#4472C4"/><rect x="1931" y="388" width="232" height="224" stroke="#000000" stroke-width="10.3125" stroke-linejoin="round" stroke-miterlimit="10" fill="#4472C4"/><rect x="1700" y="612" width="231" height="225" stroke="#000000" stroke-width="10.3125" stroke-linejoin="round" stroke-miterlimit="10" fill="none"/><rect x="1931" y="612" width="232" height="225" stroke="#000000" stroke-width="10.3125" stroke-linejoin="round" stroke-miterlimit="10" fill="#4472C4"/><rect x="1236" y="837" width="232" height="224" stroke="#000000" stroke-width="10.3125" stroke-linejoin="round" stroke-miterlimit="10" fill="none"/><rect x="1468" y="837" width="232" height="224" stroke="#000000" stroke-width="10.3125" stroke-linejoin="round" stroke-miterlimit="10" fill="none"/><rect x="1236" y="1061" width="232" height="224" stroke="#000000" stroke-width="10.3125" stroke-linejoin="round" stroke-miterlimit="10" fill="none"/><rect x="1468" y="1061" width="232" height="224" stroke="#000000" stroke-width="10.3125" stroke-linejoin="round" stroke-miterlimit="10" fill="none"/><rect x="1700" y="837" width="231" height="224" stroke="#000000" stroke-width="10.3125" stroke-linejoin="round" stroke-miterlimit="10" fill="none"/><rect x="1931" y="837" width="232" height="224" stroke="#000000" stroke-width="10.3125" stroke-linejoin="round" stroke-miterlimit="10" fill="#4472C4"/><rect x="1700" y="1061" width="231" height="224" stroke="#000000" stroke-width="10.3125" stroke-linejoin="round" stroke-miterlimit="10" fill="none"/><rect x="1931" y="1061" width="232" height="224" stroke="#000000" stroke-width="10.3125" stroke-linejoin="round" stroke-miterlimit="10" fill="#4472C4"/><rect x="309" y="1285" width="232" height="224" stroke="#000000" stroke-width="10.3125" stroke-linejoin="round" stroke-miterlimit="10" fill="#4472C4"/><rect x="541" y="1285" width="232" height="224" stroke="#000000" stroke-width="10.3125" stroke-linejoin="round" stroke-miterlimit="10" fill="none"/><rect x="309" y="1510" width="232" height="224" stroke="#000000" stroke-width="10.3125" stroke-linejoin="round" stroke-miterlimit="10" fill="#4472C4"/><rect x="541" y="1510" width="232" height="224" stroke="#000000" stroke-width="10.3125" stroke-linejoin="round" stroke-miterlimit="10" fill="none"/><rect x="773" y="1285" width="231" height="224" stroke="#000000" stroke-width="10.3125" stroke-linejoin="round" stroke-miterlimit="10" fill="none"/><rect x="1004" y="1285" width="232" height="224" stroke="#000000" stroke-width="10.3125" stroke-linejoin="round" stroke-miterlimit="10" fill="none"/><rect x="773" y="1510" width="231" height="224" stroke="#000000" stroke-width="10.3125" stroke-linejoin="round" stroke-miterlimit="10" fill="none"/><rect x="1004" y="1510" width="232" height="224" stroke="#000000" stroke-width="10.3125" stroke-linejoin="round" stroke-miterlimit="10" fill="none"/><rect x="309" y="1734" width="232" height="224" stroke="#000000" stroke-width="10.3125" stroke-linejoin="round" stroke-miterlimit="10" fill="#4472C4"/><rect x="541" y="1734" width="232" height="224" stroke="#000000" stroke-width="10.3125" stroke-linejoin="round" stroke-miterlimit="10" fill="none"/><rect x="309" y="1958" width="232" height="225" stroke="#000000" stroke-width="10.3125" stroke-linejoin="round" stroke-miterlimit="10" fill="#4472C4"/><rect x="541" y="1958" width="232" height="225" stroke="#000000" stroke-width="10.3125" stroke-linejoin="round" stroke-miterlimit="10" fill="#4472C4"/><rect x="773" y="1734" width="231" height="224" stroke="#000000" stroke-width="10.3125" stroke-linejoin="round" stroke-miterlimit="10" fill="none"/><rect x="1004" y="1734" width="232" height="224" stroke="#000000" stroke-width="10.3125" stroke-linejoin="round" stroke-miterlimit="10" fill="none"/><rect x="773" y="1958" width="231" height="225" stroke="#000000" stroke-width="10.3125" stroke-linejoin="round" stroke-miterlimit="10" fill="#4472C4"/><rect x="1004" y="1958" width="232" height="225" stroke="#000000" stroke-width="10.3125" stroke-linejoin="round" stroke-miterlimit="10" fill="#4472C4"/><rect x="1236" y="1285" width="232" height="224" stroke="#000000" stroke-width="10.3125" stroke-linejoin="round" stroke-miterlimit="10" fill="none"/><rect x="1468" y="1285" width="232" height="224" stroke="#000000" stroke-width="10.3125" stroke-linejoin="round" stroke-miterlimit="10" fill="none"/><rect x="1236" y="1510" width="232" height="224" stroke="#000000" stroke-width="10.3125" stroke-linejoin="round" stroke-miterlimit="10" fill="none"/><rect x="1468" y="1510" width="232" height="224" stroke="#000000" stroke-width="10.3125" stroke-linejoin="round" stroke-miterlimit="10" fill="#4472C4"/><rect x="1700" y="1285" width="231" height="224" stroke="#000000" stroke-width="10.3125" stroke-linejoin="round" stroke-miterlimit="10" fill="none"/><rect x="1931" y="1285" width="232" height="224" stroke="#000000" stroke-width="10.3125" stroke-linejoin="round" stroke-miterlimit="10" fill="#4472C4"/><rect x="1700" y="1510" width="231" height="224" stroke="#000000" stroke-width="10.3125" stroke-linejoin="round" stroke-miterlimit="10" fill="none"/><rect x="1931" y="1510" width="232" height="224" stroke="#000000" stroke-width="10.3125" stroke-linejoin="round" stroke-miterlimit="10" fill="#4472C4"/><rect x="1236" y="1734" width="232" height="224" stroke="#000000" stroke-width="10.3125" stroke-linejoin="round" stroke-miterlimit="10" fill="none"/><rect x="1468" y="1734" width="232" height="224" stroke="#000000" stroke-width="10.3125" stroke-linejoin="round" stroke-miterlimit="10" fill="none"/><rect x="1236" y="1958" width="232" height="225" stroke="#000000" stroke-width="10.3125" stroke-linejoin="round" stroke-miterlimit="10" fill="#4472C4"/><rect x="1468" y="1958" width="232" height="225" stroke="#000000" stroke-width="10.3125" stroke-linejoin="round" stroke-miterlimit="10" fill="#4472C4"/><rect x="1700" y="1734" width="231" height="224" stroke="#000000" stroke-width="10.3125" stroke-linejoin="round" stroke-miterlimit="10" fill="none"/><rect x="1931" y="1734" width="232" height="224" stroke="#000000" stroke-width="10.3125" stroke-linejoin="round" stroke-miterlimit="10" fill="#4472C4"/><rect x="1700" y="1958" width="231" height="225" stroke="#000000" stroke-width="10.3125" stroke-linejoin="round" stroke-miterlimit="10" fill="#4472C4"/><rect x="1931" y="1958" width="232" height="225" stroke="#000000" stroke-width="10.3125" stroke-linejoin="round" stroke-miterlimit="10" fill="#4472C4"/></g></svg>